<svg ref:icon fill="#FFFFFF" height="24" viewBox="0 0 24 24" width="24">
  {{#if showConvo}}
  <!--Left Arrow icon-->
  <!--Front point-->
  <path d="M 3.9999998,12 5.4142134,13.414214 6.828427,12 5.4142134,10.585787 Z" />
  <!-- Top Slant, Stem, Bottom Slant-->
  <path d="M 3.9999998,12 5.4142134,13.414214 13.42,5.41 12.005787,3.9957865 Z" />
  <path d="M 6,13 H 20 V 11 H 6 Z" />
  <path d="M 3.9999998,12 12,20 13.414213,18.585787 5.4142134,10.585786 Z" />
  {{elseif showSettings}}
  <!--List ico-->
  <!--Top, Middle, and Bottom Dots-->
  <path d="M 3,9 H 5 V 7 H 3 Z" />
  <path d="M 3,13 H 5 V 11 H 3 Z" />
  <path d="M 3,17 H 5 V 15 H 3 Z" />
  <!--Top, Middle, and Bottom Lists-->
  <path d="M 7,7 V 9 H 21 V 7 Z" />
  <path d="M 7,13 H 21 V 11 H 7 Z" />
  <path d="M 7,17 H 21 V 15 H 7 Z" />
  {{else}}
  <path d="M19.43 12.98c.04-.32.07-.64.07-.98s-.03-.66-.07-.98l2.11-1.65c.19-.15.24-.42.12-.64l-2-3.46c-.12-.22-.39-.3-.61-.22l-2.49 1c-.52-.4-1.08-.73-1.69-.98l-.38-2.65C14.46 2.18 14.25 2 14 2h-4c-.
25 0-.46.18-.49.42l-.38 2.65c-.61.25-1.17.59-1.69.98l-2.49-1c-.23-.09-.49 0-.61.22l-2 3.46c-.13.22-.07.49.12.64l2.11 1.65c-.04.32-.07.65-.07.98s.03.66.07.98l-2.11 1.65c-.19.15-.24.42-.12.64l2 3.46c.12
.22.39.3.61.22l2.49-1c.52.4 1.08.73 1.69.98l.38 2.65c.03.24.24.42.49.42h4c.25 0 .46-.18.49-.42l.38-2.65c.61-.25 1.17-.59 1.69-.98l2.49 1c.23.09.49 0 .61-.22l2-3.46c.12-.22.07-.49-.12-.64l-2.11-1.65zM1
2 15.5c-1.93 0-3.5-1.57-3.5-3.5s1.57-3.5 3.5-3.5 3.5 1.57 3.5 3.5-1.57 3.5-3.5 3.5z"/>
  {{/if}}
  <!--Empty background -->
  <path d="M0 0h24v24H0z" fill="none"/>
</svg>
